<svg xmlns="http://www.w3.org/2000/svg" width="1000" height="560" viewBox="0 0 1000 560"><defs>
<marker id="arw" viewBox="0 0 10 10" refX="9" refY="5" markerWidth="5" markerHeight="5" orient="auto-start-reverse"><path d="M0,0 L10,5 L0,10 z" fill="#52514E"/></marker>
<marker id="arwb" viewBox="0 0 10 10" refX="9" refY="5" markerWidth="5" markerHeight="5" orient="auto-start-reverse"><path d="M0,0 L10,5 L0,10 z" fill="#2A78D6"/></marker>
</defs><rect x="0" y="0" width="1000" height="560" fill="#FFFFFF"/><text x="48" y="70" font-size="38px" font-weight="700" fill="#0B0B0B" text-anchor="start">跨场次复用</text><text x="48" y="106" font-size="20px" font-weight="400" fill="#52514E" text-anchor="start">第一场复盘写入 → 第二场查询召回</text><rect x="48.0" y="210" width="196.0" height="160" rx="10" fill="#FFFFFF" stroke="#2A78D6" stroke-width="1.6"/><text x="146.0" y="290.0" font-size="22px" font-weight="600" fill="#0B0B0B" text-anchor="middle">场次1 复盘</text><path d="M250.0,290.0 L278.0,290.0" fill="none" stroke="#52514E" stroke-width="2.2" marker-end="url(#arw)"/><rect x="284.0" y="210" width="196.0" height="160" rx="10" fill="#FFFFFF" stroke="#2A78D6" stroke-width="1.6"/><text x="382.0" y="290.0" font-size="22px" font-weight="600" fill="#0B0B0B" text-anchor="middle">写入经验库</text><path d="M486.0,290.0 L514.0,290.0" fill="none" stroke="#52514E" stroke-width="2.2" marker-end="url(#arw)"/><rect x="520.0" y="210" width="196.0" height="160" rx="10" fill="#FFFFFF" stroke="#2A78D6" stroke-width="1.6"/><text x="618.0" y="290.0" font-size="22px" font-weight="600" fill="#0B0B0B" text-anchor="middle">场次2 查询</text><path d="M722.0,290.0 L750.0,290.0" fill="none" stroke="#52514E" stroke-width="2.2" marker-end="url(#arw)"/><rect x="756.0" y="210" width="196.0" height="160" rx="10" fill="#FFFFFF" stroke="#2A78D6" stroke-width="1.6"/><text x="854.0" y="290.0" font-size="22px" font-weight="600" fill="#0B0B0B" text-anchor="middle">命中 0.833</text></svg>