<svg xmlns="http://www.w3.org/2000/svg" width="900" height="1060" viewBox="0 0 900 1060"><defs>
<marker id="arw" viewBox="0 0 10 10" refX="9" refY="5" markerWidth="5" markerHeight="5" orient="auto-start-reverse"><path d="M0,0 L10,5 L0,10 z" fill="#52514E"/></marker>
<marker id="arwb" viewBox="0 0 10 10" refX="9" refY="5" markerWidth="5" markerHeight="5" orient="auto-start-reverse"><path d="M0,0 L10,5 L0,10 z" fill="#2A78D6"/></marker>
</defs><rect x="0" y="0" width="900" height="1060" fill="#FFFFFF"/><text x="48" y="70" font-size="38px" font-weight="700" fill="#0B0B0B" text-anchor="start" font-family="Microsoft YaHei, SimHei, sans-serif">智戎事件驱动适配</text><text x="48" y="106" font-size="20px" font-weight="400" fill="#52514E" text-anchor="start" font-family="Microsoft YaHei, SimHei, sans-serif">三挂接点 → P0 生命周期适配</text><rect x="48.0" y="210" width="171.0" height="160" rx="10" fill="#FFFFFF" stroke="#2A78D6" stroke-width="1.6"/><text x="133.5" y="290.0" font-size="22px" font-weight="600" fill="#0B0B0B" text-anchor="middle" font-family="Microsoft YaHei, SimHei, sans-serif">hook_plan</text><path d="M225.0,290.0 L253.0,290.0" fill="none" stroke="#52514E" stroke-width="2.2" marker-end="url(#arw)"/><rect x="259.0" y="210" width="171.0" height="160" rx="10" fill="#FFFFFF" stroke="#2A78D6" stroke-width="1.6"/><text x="344.5" y="290.0" font-size="22px" font-weight="600" fill="#0B0B0B" text-anchor="middle" font-family="Microsoft YaHei, SimHei, sans-serif">hook_feedback</text><path d="M436.0,290.0 L464.0,290.0" fill="none" stroke="#52514E" stroke-width="2.2" marker-end="url(#arw)"/><rect x="470.0" y="210" width="171.0" height="160" rx="10" fill="#FFFFFF" stroke="#2A78D6" stroke-width="1.6"/><text x="555.5" y="290.0" font-size="22px" font-weight="600" fill="#0B0B0B" text-anchor="middle" font-family="Microsoft YaHei, SimHei, sans-serif">hook_evolve</text><path d="M647.0,290.0 L675.0,290.0" fill="none" stroke="#52514E" stroke-width="2.2" marker-end="url(#arw)"/><rect x="681.0" y="210" width="171.0" height="160" rx="10" fill="#FFFFFF" stroke="#2A78D6" stroke-width="1.6"/><text x="766.5" y="290.0" font-size="22px" font-weight="600" fill="#0B0B0B" text-anchor="middle" font-family="Microsoft YaHei, SimHei, sans-serif">normalize_task</text></svg>