<svg xmlns="http://www.w3.org/2000/svg" width="1200" height="680" viewBox="0 0 1200 680" font-family="'Microsoft YaHei','PingFang SC','Noto Sans CJK SC',sans-serif">
<defs><marker id="arw" viewBox="0 0 10 10" refX="9" refY="5" markerWidth="5" markerHeight="5" orient="auto-start-reverse"><path d="M0,0 L10,5 L0,10 z" fill="#52514E"/></marker></defs>
<text x="90.0" y="76.0" font-size="36" font-weight="600" fill="#0B0B0B" text-anchor="start">测试集 8 类结构</text>
<text x="90.0" y="112.0" font-size="21" font-weight="400" fill="#52514E" text-anchor="start">共 50 条用例；查询与答案刻意错开措辞，含 12 条负例与参数干扰项</text>
<path d="M120,560.0 L1140,560.0" fill="none" stroke="#E1E0D9" stroke-width="1"/>
<text x="106.0" y="566.0" font-size="16" font-weight="400" fill="#898781" text-anchor="end">0</text>
<path d="M120,442.9 L1140,442.9" fill="none" stroke="#E1E0D9" stroke-width="1"/>
<text x="106.0" y="448.9" font-size="16" font-weight="400" fill="#898781" text-anchor="end">4</text>
<path d="M120,325.7 L1140,325.7" fill="none" stroke="#E1E0D9" stroke-width="1"/>
<text x="106.0" y="331.7" font-size="16" font-weight="400" fill="#898781" text-anchor="end">8</text>
<path d="M120,208.6 L1140,208.6" fill="none" stroke="#E1E0D9" stroke-width="1"/>
<text x="106.0" y="214.6" font-size="16" font-weight="400" fill="#898781" text-anchor="end">12</text>
<rect x="150.8" y="384.3" width="66.0" height="175.7" rx="6" fill="#2A78D6" stroke="none" stroke-width="0"/>
<text x="183.8" y="374.3" font-size="20" font-weight="600" fill="#0B0B0B" text-anchor="middle">6</text>
<text x="183.8" y="588.0" font-size="18" font-weight="600" fill="#0B0B0B" text-anchor="middle">A</text>
<text x="183.8" y="610.0" font-size="14" font-weight="400" fill="#898781" text-anchor="middle">属性精确</text>
<rect x="278.2" y="384.3" width="66.0" height="175.7" rx="6" fill="#1BAF7A" stroke="none" stroke-width="0"/>
<text x="311.2" y="374.3" font-size="20" font-weight="600" fill="#0B0B0B" text-anchor="middle">6</text>
<text x="311.2" y="588.0" font-size="18" font-weight="600" fill="#0B0B0B" text-anchor="middle">B</text>
<text x="311.2" y="610.0" font-size="14" font-weight="400" fill="#898781" text-anchor="middle">事实语义</text>
<rect x="405.8" y="325.7" width="66.0" height="234.3" rx="6" fill="#EB6834" stroke="none" stroke-width="0"/>
<text x="438.8" y="315.7" font-size="20" font-weight="600" fill="#0B0B0B" text-anchor="middle">8</text>
<text x="438.8" y="588.0" font-size="18" font-weight="600" fill="#0B0B0B" text-anchor="middle">C</text>
<text x="438.8" y="610.0" font-size="14" font-weight="400" fill="#898781" text-anchor="middle">经验转述</text>
<rect x="533.2" y="442.9" width="66.0" height="117.1" rx="6" fill="#EDA100" stroke="none" stroke-width="0"/>
<text x="566.2" y="432.9" font-size="20" font-weight="600" fill="#0B0B0B" text-anchor="middle">4</text>
<text x="566.2" y="588.0" font-size="18" font-weight="600" fill="#0B0B0B" text-anchor="middle">D</text>
<text x="566.2" y="610.0" font-size="14" font-weight="400" fill="#898781" text-anchor="middle">词法</text>
<rect x="660.8" y="208.6" width="66.0" height="351.4" rx="6" fill="#898781" stroke="none" stroke-width="0"/>
<text x="693.8" y="198.6" font-size="20" font-weight="600" fill="#0B0B0B" text-anchor="middle">12</text>
<text x="693.8" y="588.0" font-size="18" font-weight="600" fill="#0B0B0B" text-anchor="middle">E</text>
<text x="693.8" y="610.0" font-size="14" font-weight="400" fill="#898781" text-anchor="middle">负例</text>
<rect x="788.2" y="442.9" width="66.0" height="117.1" rx="6" fill="#4A3AA7" stroke="none" stroke-width="0"/>
<text x="821.2" y="432.9" font-size="20" font-weight="600" fill="#0B0B0B" text-anchor="middle">4</text>
<text x="821.2" y="588.0" font-size="18" font-weight="600" fill="#0B0B0B" text-anchor="middle">F</text>
<text x="821.2" y="610.0" font-size="14" font-weight="400" fill="#898781" text-anchor="middle">参数干扰</text>
<rect x="915.8" y="442.9" width="66.0" height="117.1" rx="6" fill="#2A78D6" stroke="none" stroke-width="0"/>
<text x="948.8" y="432.9" font-size="20" font-weight="600" fill="#0B0B0B" text-anchor="middle">4</text>
<text x="948.8" y="588.0" font-size="18" font-weight="600" fill="#0B0B0B" text-anchor="middle">G</text>
<text x="948.8" y="610.0" font-size="14" font-weight="400" fill="#898781" text-anchor="middle">阶段决胜</text>
<rect x="1043.2" y="384.3" width="66.0" height="175.7" rx="6" fill="#1BAF7A" stroke="none" stroke-width="0"/>
<text x="1076.2" y="374.3" font-size="20" font-weight="600" fill="#0B0B0B" text-anchor="middle">6</text>
<text x="1076.2" y="588.0" font-size="18" font-weight="600" fill="#0B0B0B" text-anchor="middle">H</text>
<text x="1076.2" y="610.0" font-size="14" font-weight="400" fill="#898781" text-anchor="middle">跨场次</text>
<path d="M120,560 L1140,560" fill="none" stroke="#898781" stroke-width="1.5"/>
<text x="90.0" y="654.0" font-size="16" font-weight="400" fill="#898781" text-anchor="start">数据来源：eval/testset.py（A–H 八类，共 50 条）</text>
</svg>